<?xml version="1.0" encoding="UTF-8" standalone="no"?>
<!-- Created with Inkscape (http://www.inkscape.org/) -->

<svg
   xmlns:dc="http://purl.org/dc/elements/1.1/"
   xmlns:cc="http://creativecommons.org/ns#"
   xmlns:rdf="http://www.w3.org/1999/02/22-rdf-syntax-ns#"
   xmlns:svg="http://www.w3.org/2000/svg"
   xmlns="http://www.w3.org/2000/svg"
   xmlns:sodipodi="http://sodipodi.sourceforge.net/DTD/sodipodi-0.dtd"
   xmlns:inkscape="http://www.inkscape.org/namespaces/inkscape"
   version="1.1"
   id="svg2"
   xml:space="preserve"
   width="296.06134"
   height="287.21066"
   viewBox="0 0 296.06134 287.21066"
   sodipodi:docname="typeconFan.svg"
   inkscape:version="0.92.3 (2405546, 2018-03-11)"><sodipodi:namedview
     pagecolor="#ffffff"
     bordercolor="#666666"
     borderopacity="1"
     objecttolerance="10"
     gridtolerance="10"
     guidetolerance="10"
     inkscape:pageopacity="0"
     inkscape:pageshadow="2"
     inkscape:window-width="1920"
     inkscape:window-height="1025"
     id="namedview4"
     showgrid="false"
     inkscape:zoom="1.1620544"
     inkscape:cx="70.015007"
     inkscape:cy="79.206102"
     inkscape:window-x="1200"
     inkscape:window-y="27"
     inkscape:window-maximized="1"
     inkscape:current-layer="g10"
     inkscape:snap-object-midpoints="true"
     inkscape:snap-center="true"
     inkscape:snap-bbox="true"
     inkscape:bbox-nodes="true"
     inkscape:snap-bbox-edge-midpoints="true"
     inkscape:snap-bbox-midpoints="true"
     inkscape:object-paths="true"
     inkscape:snap-intersection-paths="true"
     inkscape:snap-smooth-nodes="true"
     inkscape:snap-midpoints="true" /><metadata
     id="metadata8"><rdf:RDF><cc:Work
         rdf:about=""><dc:format>image/svg+xml</dc:format><dc:type
           rdf:resource="http://purl.org/dc/dcmitype/StillImage" /><dc:title></dc:title></cc:Work></rdf:RDF></metadata><defs
     id="defs6"><clipPath
       id="clipPath78"
       clipPathUnits="userSpaceOnUse"><path
         inkscape:connector-curvature="0"
         id="path76"
         d="M 0,215.408 H 222.046 V 0 H 0 Z" /></clipPath><clipPath
       id="clipPath94"
       clipPathUnits="userSpaceOnUse"><path
         inkscape:connector-curvature="0"
         id="path92"
         d="M 0,215.408 H 222.046 V 0 H 0 Z" /></clipPath></defs><g
     transform="matrix(1.3333333,0,0,-1.3333333,0,287.21067)"
     inkscape:label="typeconFan"
     inkscape:groupmode="layer"
     id="g10"><g
       id="g340"><g
         id="g307"><g
           transform="translate(109.7598,106.5557)"
           id="g12"><path
             inkscape:connector-curvature="0"
             id="path14"
             style="fill:none;stroke:#0000ff;stroke-width:1;stroke-linecap:butt;stroke-linejoin:miter;stroke-miterlimit:10;stroke-dasharray:none;stroke-opacity:1"
             d="M 0,0 H 69.349" /></g><g
           transform="translate(177.1211,104.1016)"
           id="g16"><path
             inkscape:connector-curvature="0"
             id="path18"
             style="fill:#0000ff;fill-opacity:1;fill-rule:nonzero;stroke:none"
             d="M 0,0 -0.409,0.439 1.758,2.453 -0.409,4.468 0,4.907 2.639,2.453 Z" /></g></g><g
         id="g313"><g
           transform="translate(109.7598,106.5557)"
           id="g20"><path
             inkscape:connector-curvature="0"
             id="path22"
             style="fill:none;stroke:#0000ff;stroke-width:1;stroke-linecap:butt;stroke-linejoin:miter;stroke-miterlimit:10;stroke-dasharray:none;stroke-opacity:1"
             d="M 0,0 H -69.349" /></g><g
           transform="translate(42.3984,109.0098)"
           id="g24"><path
             inkscape:connector-curvature="0"
             id="path26"
             style="fill:#0000ff;fill-opacity:1;fill-rule:nonzero;stroke:none"
             d="M 0,0 0.409,-0.439 -1.758,-2.453 0.409,-4.468 0,-4.907 -2.639,-2.453 Z" /></g></g><g
         id="g295"><g
           transform="translate(109.7598,106.5557)"
           id="g28"><path
             inkscape:connector-curvature="0"
             id="path30"
             style="fill:none;stroke:#0000ff;stroke-width:1;stroke-linecap:butt;stroke-linejoin:miter;stroke-miterlimit:10;stroke-dasharray:none;stroke-opacity:1"
             d="M 0,0 V 69.35" /></g><g
           transform="translate(112.2139,173.917)"
           id="g32"><path
             inkscape:connector-curvature="0"
             id="path34"
             style="fill:#0000ff;fill-opacity:1;fill-rule:nonzero;stroke:none"
             d="M 0,0 -0.439,-0.409 -2.454,1.758 -4.468,-0.409 -4.907,0 -2.454,2.639 Z" /></g></g><g
         id="g289"><g
           transform="translate(109.7598,106.5557)"
           id="g36"><path
             inkscape:connector-curvature="0"
             id="path38"
             style="fill:none;stroke:#0000ff;stroke-width:1;stroke-linecap:butt;stroke-linejoin:miter;stroke-miterlimit:10;stroke-dasharray:none;stroke-opacity:1"
             d="M 0,0 -69.54,69.54" /></g><g
           transform="translate(43.3608,176.4248)"
           id="g40"><path
             inkscape:connector-curvature="0"
             id="path42"
             style="fill:#0000ff;fill-opacity:1;fill-rule:nonzero;stroke:none"
             d="m 0,0 -0.021,-0.6 -2.957,0.108 0.108,-2.956 -0.6,-0.022 -0.131,3.601 z" /></g></g><g
         id="g301"><g
           transform="translate(109.7598,106.5557)"
           id="g44"><path
             inkscape:connector-curvature="0"
             id="path46"
             style="fill:none;stroke:#0000ff;stroke-width:1;stroke-linecap:butt;stroke-linejoin:miter;stroke-miterlimit:10;stroke-dasharray:none;stroke-opacity:1"
             d="M 0,0 V -69.35" /></g><g
           transform="translate(107.3057,39.1943)"
           id="g48"><path
             inkscape:connector-curvature="0"
             id="path50"
             style="fill:#0000ff;fill-opacity:1;fill-rule:nonzero;stroke:none"
             d="M 0,0 0.439,0.409 2.454,-1.758 4.468,0.409 4.907,0 2.454,-2.639 Z" /></g></g></g><g
       id="g227"
       transform="matrix(1,0,0,-1,-166.56757,118.93302)"><path
         style="font-style:normal;font-variant:normal;font-weight:normal;font-stretch:normal;letter-spacing:normal;word-spacing:normal;text-anchor:start;fill:#000000;fill-opacity:1;fill-rule:evenodd;stroke:#000000;stroke-width:0;stroke-linecap:butt;stroke-linejoin:miter;stroke-miterlimit:10.43299961;stroke-dasharray:none;stroke-dashoffset:0;stroke-opacity:1"
         inkscape:connector-curvature="0"
         d="m 358.29969,7.7635418 v -0.049236 -0.053339 l -0.004,-0.049236 v -0.045133 l -0.004,-0.049236 -0.004,-0.045133 -0.004,-0.045133 -0.008,-0.04103 -0.0123,-0.086163 -0.0123,-0.077957 -0.0205,-0.073854 -0.0164,-0.073854 -0.0246,-0.065648 -0.0246,-0.065648 -0.0246,-0.061545 -0.0287,-0.053339 -0.0287,-0.053339 -0.0287,-0.049236 -0.0328,-0.049236 -0.0328,-0.04103 -0.0328,-0.04103 -0.0369,-0.036927 -0.0328,-0.032824 -0.0369,-0.028721 -0.0369,-0.028721 -0.0369,-0.024618 -0.041,-0.020515 -0.0369,-0.020515 -0.0369,-0.016412 -0.0369,-0.012309 -0.0369,-0.012309 -0.041,-0.012309 -0.0369,-0.0041 -0.0328,-0.00821 h -0.0369 -0.0369 c -0.51288,0 -0.99703,0.5292882 -0.99703,0.9806192 0,0.2625926 0.10257,0.3815799 0.32414,0.6072454 0.43081,0.410301 0.69341,0.9436922 0.69341,1.6781309 0,0.8616317 -1.24322,5.5390627 -3.63527,5.5390627 -1.04217,0 -1.51401,-0.718027 -1.51401,-1.7725 0,-1.148843 0.5539,-2.642338 1.18987,-4.336881 0.1395,-0.3528589 0.24208,-0.6318635 0.24208,-1.0257524 0,-0.9149711 -0.65238,-1.6699248 -1.67813,-1.6699248 -1.92021,0 -2.69978,2.9582698 -2.69978,3.1470082 0,0.2051505 0.20515,0.2051505 0.25028,0.2051505 0.20515,0 0.22156,-0.045133 0.32414,-0.3733739 0.59083,-2.0638137 1.46888,-2.5315568 2.06381,-2.5315568 0.16412,0 0.51288,0 0.51288,0.6523785 0,0.5128762 -0.20515,1.0667824 -0.34876,1.4319503 -0.89856,2.3715394 -1.16115,3.3152314 -1.16115,4.1932754 0,2.203316 1.79302,2.531557 2.73671,2.531557 3.43422,0 4.59537,-6.7658625 4.59537,-7.8285419 z"
         id="path107" /><path
         style="font-style:normal;font-variant:normal;font-weight:normal;font-stretch:normal;letter-spacing:normal;word-spacing:normal;text-anchor:start;fill:#000000;fill-opacity:1;fill-rule:evenodd;stroke:#000000;stroke-width:0;stroke-linecap:butt;stroke-linejoin:miter;stroke-miterlimit:10.43299961;stroke-dasharray:none;stroke-dashoffset:0;stroke-opacity:1"
         inkscape:connector-curvature="0"
         d="M 363.42024,9.3267883 V 9.3103763 9.2939643 9.2734492 9.2570372 9.2447281 9.2283161 9.2119041 9.199595 9.183183 9.170874 l -0.004,-0.012309 V 9.146256 9.133947 l -0.004,-0.012309 V 9.109329 9.101119 l -0.004,-0.012309 V 9.0806 l -0.004,-0.012309 v -0.00821 l -0.004,-0.016412 -0.008,-0.016412 -0.008,-0.012309 -0.008,-0.012309 -0.008,-0.012309 -0.008,-0.012309 -0.0123,-0.00821 -0.0123,-0.00821 -0.0123,-0.00821 -0.0164,-0.0041 -0.0164,-0.0041 -0.0205,-0.00821 h -0.008 -0.008 l -0.0123,-0.0041 h -0.0123 l -0.008,-0.0041 h -0.0123 -0.0123 -0.0123 -0.0123 l -0.0164,-0.0041 h -0.0123 -0.0164 -0.0123 -0.0164 -0.0164 -0.0164 -0.0164 -0.0164 -0.0205 -0.0164 c -0.91907,0.9026621 -2.21152,0.9149711 -2.80235,0.9149711 v 0.5128769 c 0.34465,0 1.28834,0 2.06791,-0.3979926 v 7.2910476 c 0,0.47595 0,0.660585 -1.42784,0.660585 h -0.5375 v 0.512876 c 0.25439,-0.01231 2.01048,-0.05744 2.54387,-0.05744 0.44312,0 2.24434,0.04513 2.55617,0.05744 v -0.512876 h -0.54159 c -1.43196,0 -1.43196,-0.184635 -1.43196,-0.660585 z"
         id="path109" /></g><g
       id="g231"
       transform="matrix(1,0,0,-1,-266.93231,197.97506)"><path
         style="font-style:normal;font-variant:normal;font-weight:normal;font-stretch:normal;letter-spacing:normal;word-spacing:normal;text-anchor:start;fill:#000000;fill-opacity:1;fill-rule:evenodd;stroke:#000000;stroke-width:0;stroke-linecap:butt;stroke-linejoin:miter;stroke-miterlimit:10.43299961;stroke-dasharray:none;stroke-dashoffset:0;stroke-opacity:1"
         inkscape:connector-curvature="0"
         d="m 377.4033,7.7635418 v -0.049236 -0.053339 l -0.004,-0.049236 v -0.045133 l -0.004,-0.049236 -0.004,-0.045133 -0.004,-0.045133 -0.008,-0.04103 -0.0123,-0.086163 -0.0123,-0.077957 -0.0205,-0.073854 -0.0205,-0.073854 -0.0205,-0.065648 -0.0246,-0.065648 -0.0246,-0.061545 -0.0287,-0.053339 -0.0287,-0.053339 -0.0287,-0.049236 -0.0328,-0.049236 -0.0328,-0.04103 -0.0328,-0.04103 -0.0369,-0.036927 -0.0328,-0.032824 -0.0369,-0.028721 -0.0369,-0.028721 -0.0369,-0.024618 -0.041,-0.020515 -0.0369,-0.020515 -0.0369,-0.016412 -0.0369,-0.012309 -0.041,-0.012309 -0.0369,-0.012309 -0.0369,-0.0041 -0.0369,-0.00821 h -0.0328 -0.0369 c -0.51287,0 -0.99703,0.5292882 -0.99703,0.9806192 0,0.2625926 0.10258,0.3815799 0.32414,0.6072454 0.43081,0.410301 0.69341,0.9436922 0.69341,1.6781309 0,0.8616317 -1.24321,5.5390627 -3.63527,5.5390627 -1.04627,0 -1.51401,-0.718027 -1.51401,-1.7725 0,-1.148843 0.55391,-2.642338 1.18577,-4.336881 0.14361,-0.3528589 0.24618,-0.6318635 0.24618,-1.0257524 0,-0.9149711 -0.65648,-1.6699248 -1.68223,-1.6699248 -1.91611,0 -2.69568,2.9582698 -2.69568,3.1470082 0,0.2051505 0.20515,0.2051505 0.24618,0.2051505 0.20515,0 0.22567,-0.045133 0.32824,-0.3733739 0.59083,-2.0638137 1.46888,-2.5315568 2.06381,-2.5315568 0.16002,0 0.51288,0 0.51288,0.6523785 0,0.5128762 -0.20515,1.0667824 -0.35286,1.4319503 -0.89445,2.3715394 -1.15705,3.3152314 -1.15705,4.1932754 0,2.203316 1.79302,2.531557 2.73671,2.531557 3.43422,0 4.59537,-6.7658625 4.59537,-7.8285419 z"
         id="path111" /><path
         style="font-style:normal;font-variant:normal;font-weight:normal;font-stretch:normal;letter-spacing:normal;word-spacing:normal;text-anchor:start;fill:#000000;fill-opacity:1;fill-rule:evenodd;stroke:#000000;stroke-width:0;stroke-linecap:butt;stroke-linejoin:miter;stroke-miterlimit:10.43299961;stroke-dasharray:none;stroke-dashoffset:0;stroke-opacity:1"
         inkscape:connector-curvature="0"
         d="m 384.95284,15.813646 h -0.48826 c -0.0369,0.315932 -0.18464,1.161152 -0.36927,1.304757 -0.11078,0.08206 -1.21039,0.08206 -1.41144,0.08206 h -2.63413 c 1.5017,-1.325272 2.00227,-1.723264 2.8598,-2.396157 1.05858,-0.849323 2.0433,-1.73147 2.0433,-3.093669 0,-1.7273672 -1.51401,-2.7859436 -3.34395,-2.7859436 -1.7725,0 -2.97469,1.2432116 -2.97469,2.5561746 0,0.730336 0.61546,0.80419 0.76316,0.80419 0.33645,0 0.75496,-0.24618 0.75496,-0.759057 0,-0.254386 -0.10258,-0.754953 -0.84522,-0.754953 0.43902,-1.0134437 1.41554,-1.3293754 2.08843,-1.3293754 1.42785,0 2.17459,1.1119154 2.17459,2.2689644 0,1.247315 -0.88625,2.232037 -1.34578,2.744913 l -3.44243,3.405498 c -0.14771,0.127193 -0.14771,0.160017 -0.14771,0.558009 h 5.89193 z"
         id="path113" /></g><g
       id="g235"
       transform="matrix(1,0,0,-1,-367.48776,198.11866)"><path
         style="font-style:normal;font-variant:normal;font-weight:normal;font-stretch:normal;letter-spacing:normal;word-spacing:normal;text-anchor:start;fill:#000000;fill-opacity:1;fill-rule:evenodd;stroke:#000000;stroke-width:0;stroke-linecap:butt;stroke-linejoin:miter;stroke-miterlimit:10.43299961;stroke-dasharray:none;stroke-dashoffset:0;stroke-opacity:1"
         inkscape:connector-curvature="0"
         d="m 396.45768,7.7635418 v -0.049236 -0.053339 l -0.004,-0.049236 v -0.045133 l -0.004,-0.049236 -0.004,-0.045133 -0.004,-0.045133 -0.008,-0.04103 -0.0123,-0.086163 -0.0123,-0.077957 -0.0205,-0.073854 -0.0164,-0.073854 -0.0246,-0.065648 -0.0246,-0.065648 -0.0246,-0.061545 -0.0287,-0.053339 -0.0287,-0.053339 -0.0287,-0.049236 -0.0328,-0.049236 -0.0328,-0.04103 -0.0328,-0.04103 -0.0369,-0.036927 -0.0328,-0.032824 -0.0369,-0.028721 -0.0369,-0.028721 -0.0369,-0.024618 -0.041,-0.020515 -0.0369,-0.020515 -0.0369,-0.016412 -0.0369,-0.012309 -0.0369,-0.012309 -0.041,-0.012309 -0.0369,-0.0041 -0.0328,-0.00821 h -0.0369 -0.0328 c -0.51288,0 -1.00113,0.5292882 -1.00113,0.9806192 0,0.2625926 0.10257,0.3815799 0.32413,0.6072454 0.43082,0.410301 0.69341,0.9436922 0.69341,1.6781309 0,0.8616317 -1.24321,5.5390627 -3.63526,5.5390627 -1.04627,0 -1.50991,-0.718027 -1.50991,-1.7725 0,-1.148843 0.5498,-2.642338 1.18167,-4.336881 0.1436,-0.3528589 0.24618,-0.6318635 0.24618,-1.0257524 0,-0.9149711 -0.65649,-1.6699248 -1.68224,-1.6699248 -1.9161,0 -2.69568,2.9582698 -2.69568,3.1470082 0,0.2051505 0.20516,0.2051505 0.25029,0.2051505 0.20515,0 0.22156,-0.045133 0.32414,-0.3733739 0.59083,-2.0638137 1.46887,-2.5315568 2.06791,-2.5315568 0.15592,0 0.51288,0 0.51288,0.6523785 0,0.5128762 -0.20515,1.0667824 -0.35696,1.4319503 -0.89446,2.3715394 -1.15705,3.3152314 -1.15705,4.1932754 0,2.203316 1.79301,2.531557 2.73671,2.531557 3.43421,0 4.59537,-6.7658625 4.59537,-7.8285419 z"
         id="path115" /><path
         style="font-style:normal;font-variant:normal;font-weight:normal;font-stretch:normal;letter-spacing:normal;word-spacing:normal;text-anchor:start;fill:#000000;fill-opacity:1;fill-rule:evenodd;stroke:#000000;stroke-width:0;stroke-linecap:butt;stroke-linejoin:miter;stroke-miterlimit:10.43299961;stroke-dasharray:none;stroke-dashoffset:0;stroke-opacity:1"
         inkscape:connector-curvature="0"
         d="m 400.69609,13.643154 h 0.10257 l 0.10258,0.0082 0.0985,0.01231 0.0985,0.01641 0.0944,0.02052 0.0944,0.02462 0.0903,0.02872 0.0862,0.03282 0.0862,0.04103 0.0821,0.04103 0.0821,0.04924 0.078,0.04924 0.0738,0.05744 0.0739,0.06154 0.0657,0.06565 0.0656,0.06975 0.0616,0.07385 0.0615,0.07796 0.0533,0.08206 0.0533,0.09027 0.0451,0.09027 0.0451,0.09847 0.041,0.09847 0.0369,0.106678 0.0328,0.110781 0.0287,0.114885 0.0246,0.118987 0.0205,0.12309 0.0164,0.127194 0.0123,0.131296 0.004,0.135399 0.004,0.143605 c 0,1.776604 -1.03396,2.301789 -1.85866,2.301789 -0.57032,0 -1.83405,-0.155915 -2.42898,-1.001135 0.66468,-0.02462 0.8247,-0.500567 0.8247,-0.800086 0,-0.455434 -0.34465,-0.783675 -0.78778,-0.783675 -0.39799,0 -0.80008,0.242077 -0.80008,0.828808 0,1.345787 1.48529,2.215625 3.21676,2.215625 1.98585,0 3.36036,-1.333478 3.36036,-2.761326 0,-1.116018 -0.91087,-2.232037 -2.49053,-2.560277 1.5017,-0.545701 2.04741,-1.612483 2.04741,-2.486424 0,-1.1283276 -1.30066,-1.9735476 -2.88442,-1.9735476 -1.59197,0 -2.80236,0.7754688 -2.80236,1.9161056 0,0.488258 0.31594,0.754954 0.74265,0.754954 0.44312,0 0.72623,-0.324138 0.72623,-0.72213 0,-0.418507 -0.28311,-0.718027 -0.72623,-0.742645 0.50057,-0.6359663 1.48119,-0.7918806 2.01458,-0.7918806 0.64007,0 1.54273,0.3159317 1.54273,1.5591436 0,0.603142 -0.19695,1.255521 -0.57032,1.698646 -0.47185,0.5457 -0.86984,0.578524 -1.58787,0.615451 -0.36106,0.03282 -0.38568,0.03282 -0.45543,0.04513 -0.0328,0 -0.14771,0.02462 -0.14771,0.184636 0,0.201047 0.1272,0.201047 0.37338,0.201047 z"
         id="path117" /></g><g
       id="g239"
       transform="matrix(1,0,0,-1,-386.70018,118.93303)"><path
         style="font-style:normal;font-variant:normal;font-weight:normal;font-stretch:normal;letter-spacing:normal;word-spacing:normal;text-anchor:start;fill:#000000;fill-opacity:1;fill-rule:evenodd;stroke:#000000;stroke-width:0;stroke-linecap:butt;stroke-linejoin:miter;stroke-miterlimit:10.43299961;stroke-dasharray:none;stroke-dashoffset:0;stroke-opacity:1"
         inkscape:connector-curvature="0"
         d="m 415.56129,7.7635418 v -0.049236 -0.053339 l -0.004,-0.049236 v -0.045133 l -0.004,-0.049236 -0.004,-0.045133 -0.004,-0.045133 -0.008,-0.04103 -0.0123,-0.086163 -0.0123,-0.077957 -0.0205,-0.073854 -0.0205,-0.073854 -0.0205,-0.065648 -0.0246,-0.065648 -0.0246,-0.061545 -0.0287,-0.053339 -0.0287,-0.053339 -0.0287,-0.049236 -0.0328,-0.049236 -0.0328,-0.04103 -0.0328,-0.04103 -0.0369,-0.036927 -0.0328,-0.032824 -0.0369,-0.028721 -0.0369,-0.028721 -0.0369,-0.024618 -0.041,-0.020515 -0.0369,-0.020515 -0.0369,-0.016412 -0.0369,-0.012309 -0.041,-0.012309 -0.0369,-0.012309 -0.0369,-0.0041 -0.0369,-0.00821 h -0.0328 -0.0369 c -0.51288,0 -0.99703,0.5292882 -0.99703,0.9806192 0,0.2625926 0.10257,0.3815799 0.32414,0.6072454 0.43081,0.410301 0.6934,0.9436922 0.6934,1.6781309 0,0.8616317 -1.24321,5.5390627 -3.63526,5.5390627 -1.04627,0 -1.51401,-0.718027 -1.51401,-1.7725 0,-1.148843 0.5539,-2.642338 1.18577,-4.336881 0.1436,-0.3528589 0.24618,-0.6318635 0.24618,-1.0257524 0,-0.9149711 -0.65648,-1.6699248 -1.68224,-1.6699248 -1.9161,0 -2.69567,2.9582698 -2.69567,3.1470082 0,0.2051505 0.20515,0.2051505 0.24618,0.2051505 0.20515,0 0.22566,-0.045133 0.32824,-0.3733739 0.59083,-2.0638137 1.46888,-2.5315568 2.06381,-2.5315568 0.16002,0 0.51288,0 0.51288,0.6523785 0,0.5128762 -0.20515,1.0667824 -0.35286,1.4319503 -0.89446,2.3715394 -1.15705,3.3152314 -1.15705,4.1932754 0,2.203316 1.79302,2.531557 2.73671,2.531557 3.43422,0 4.59537,-6.7658625 4.59537,-7.8285419 z"
         id="path119" /><path
         style="font-style:normal;font-variant:normal;font-weight:normal;font-stretch:normal;letter-spacing:normal;word-spacing:normal;text-anchor:start;fill:#000000;fill-opacity:1;fill-rule:evenodd;stroke:#000000;stroke-width:0;stroke-linecap:butt;stroke-linejoin:miter;stroke-miterlimit:10.43299961;stroke-dasharray:none;stroke-dashoffset:0;stroke-opacity:1"
         inkscape:connector-curvature="0"
         d="M 423.45958,16.072136 V 15.55926 h -1.59197 V 9.17908 c 0,-0.2954167 0,-0.3979919 -0.31182,-0.3979919 -0.17643,0 -0.23388,0 -0.37338,0.2010474 l -4.73077,6.5771245 v 0.512876 h 4.20559 l 0.0944,-0.512876 h -3.77477 l 3.77477,-5.231337 v 5.231337 l -0.0944,0.512876 v 1.17346 c 0,0.488259 0,0.660585 -1.16116,0.660585 h -0.38568 v 0.512876 c 0.71393,-0.02462 1.6289,-0.05744 2.14177,-0.05744 0.53339,0 1.44426,0.03282 2.16229,0.05744 v -0.512876 h -0.38568 c -1.16116,0 -1.16116,-0.172326 -1.16116,-0.660585 v -1.17346 z"
         id="path121" /></g><g
       id="g243"
       transform="matrix(1,0,0,-1,-324.14426,40.815187)"><path
         style="font-style:normal;font-variant:normal;font-weight:normal;font-stretch:normal;letter-spacing:normal;word-spacing:normal;text-anchor:start;fill:#000000;fill-opacity:1;fill-rule:evenodd;stroke:#000000;stroke-width:0;stroke-linecap:butt;stroke-linejoin:miter;stroke-miterlimit:10.43299961;stroke-dasharray:none;stroke-dashoffset:0;stroke-opacity:1"
         inkscape:connector-curvature="0"
         d="m 434.61566,7.7635418 v -0.049236 -0.053339 l -0.004,-0.049236 v -0.045133 l -0.004,-0.049236 -0.004,-0.045133 -0.004,-0.045133 -0.008,-0.04103 -0.0123,-0.086163 -0.0123,-0.077957 -0.0205,-0.073854 -0.0164,-0.073854 -0.0246,-0.065648 -0.0246,-0.065648 -0.0246,-0.061545 -0.0287,-0.053339 -0.0287,-0.053339 -0.0287,-0.049236 -0.0328,-0.049236 -0.0328,-0.04103 -0.0328,-0.04103 -0.0369,-0.036927 -0.0328,-0.032824 -0.0369,-0.028721 -0.0369,-0.028721 -0.0369,-0.024618 -0.041,-0.020515 -0.0369,-0.020515 -0.0369,-0.016412 -0.0369,-0.012309 -0.0369,-0.012309 -0.041,-0.012309 -0.0369,-0.0041 -0.0328,-0.00821 h -0.0369 -0.0328 c -0.51288,0 -1.00114,0.5292882 -1.00114,0.9806192 0,0.2625926 0.10258,0.3815799 0.32414,0.6072454 0.43082,0.410301 0.69341,0.9436922 0.69341,1.6781309 0,0.8616317 -1.24321,5.5390627 -3.63527,5.5390627 -1.04626,0 -1.5099,-0.718027 -1.5099,-1.7725 0,-1.148843 0.5498,-2.642338 1.18166,-4.336881 0.14361,-0.3528589 0.24618,-0.6318635 0.24618,-1.0257524 0,-0.9149711 -0.65648,-1.6699248 -1.68223,-1.6699248 -1.91611,0 -2.69568,2.9582698 -2.69568,3.1470082 0,0.2051505 0.20515,0.2051505 0.25029,0.2051505 0.20515,0 0.22156,-0.045133 0.32413,-0.3733739 0.59084,-2.0638137 1.46888,-2.5315568 2.06792,-2.5315568 0.15591,0 0.51288,0 0.51288,0.6523785 0,0.5128762 -0.20515,1.0667824 -0.35697,1.4319503 -0.89445,2.3715394 -1.15704,3.3152314 -1.15704,4.1932754 0,2.203316 1.79301,2.531557 2.7367,2.531557 3.43422,0 4.59537,-6.7658625 4.59537,-7.8285419 z"
         id="path123" /><path
         style="font-style:normal;font-variant:normal;font-weight:normal;font-stretch:normal;letter-spacing:normal;word-spacing:normal;text-anchor:start;fill:#000000;fill-opacity:1;fill-rule:evenodd;stroke:#000000;stroke-width:0;stroke-linecap:butt;stroke-linejoin:miter;stroke-miterlimit:10.43299961;stroke-dasharray:none;stroke-dashoffset:0;stroke-opacity:1"
         inkscape:connector-curvature="0"
         d="m 437.16774,10.442807 0.0656,0.01641 0.0657,0.01641 0.0616,0.01641 0.0656,0.01231 0.0574,0.01231 0.0615,0.01231 0.0574,0.01231 0.0533,0.0082 0.0533,0.01231 0.0533,0.0082 0.0492,0.0082 0.0492,0.0041 0.0492,0.0082 0.0451,0.0041 0.0451,0.0082 0.0451,0.0041 0.041,0.0041 0.041,0.0041 h 0.0369 l 0.0369,0.0041 0.0369,0.0041 h 0.0369 0.0328 l 0.0328,0.0041 h 0.0287 0.0287 0.0287 0.0287 0.0246 0.0246 0.0246 0.0205 c 1.88738,0 2.9993,-1.2883446 2.9993,-1.5058041 0,-0.1518114 -0.0944,-0.1969445 -0.16412,-0.1969445 -0.0328,0 -0.0574,0 -0.11488,0.045133 -0.34876,0.1271933 -1.10371,0.414404 -2.16229,0.414404 -0.39799,0 -1.16115,-0.032824 -2.08843,-0.3897859 -0.14361,-0.069751 -0.16823,-0.069751 -0.18874,-0.069751 -0.18464,0 -0.18464,0.1600174 -0.18464,0.3856829 V 13.52827 c 0,0.242078 0,0.414404 0.22977,0.414404 0.1313,0 0.14361,-0.02462 0.29132,-0.196945 0.61545,-0.787777 1.48529,-0.906765 1.98585,-0.906765 0.85343,0 1.24321,0.689306 1.31297,0.80419 0.25848,0.471846 0.34055,1.013444 0.34055,1.846354 0,0.426713 0,1.26783 -0.42672,1.895591 -0.35286,0.521082 -0.96831,0.861632 -1.66992,0.861632 -0.92728,0 -1.89149,-0.512876 -2.24845,-1.456569 0.5457,0.03693 0.81239,-0.315931 0.81239,-0.697511 0,-0.615452 -0.52518,-0.730336 -0.70982,-0.730336 -0.0246,0 -0.71802,0 -0.71802,0.767263 0,1.288345 1.17346,2.57669 2.89262,2.57669 1.82584,0 3.42601,-1.358096 3.42601,-3.159317 0,-1.616586 -1.2309,-3.101876 -2.9993,-3.101876 -0.62776,0 -1.3704,0.151812 -1.99816,0.697512 z"
         id="path125" /></g><path
       id="path127"
       d="m 147.48614,138.09873 -0.0369,0.0697 -0.0328,0.0697 -0.041,0.0656 -0.0369,0.0657 -0.041,0.0657 -0.041,0.0657 -0.0451,0.0615 -0.0451,0.0574 -0.0451,0.0616 -0.0492,0.0533 -0.0492,0.0574 -0.0492,0.0533 -0.0533,0.0492 -0.0533,0.0492 -0.0574,0.0451 -0.0574,0.0451 -0.0574,0.0451 -0.0615,0.0369 -0.0616,0.041 -0.0615,0.0328 -0.0656,0.0328 -0.0697,0.0328 -0.0657,0.0246 -0.0738,0.0287 -0.0698,0.0205 -0.0739,0.0205 -0.0779,0.0164 -0.078,0.0123 -0.078,0.0123 -0.0821,0.008 -0.0821,0.004 h -0.0862 l 0.0205,-0.44723 c 1.32527,0 1.61249,-1.67402 1.61249,-1.79301 0,-0.1313 -0.0369,-0.25029 -0.0574,-0.35286 l -1.02575,-4.00864 c -0.10257,-0.36517 -0.10257,-0.4021 -0.4103,-0.75495 -0.89446,-1.12423 -1.73557,-1.44837 -2.30589,-1.44837 -1.01755,0 -1.30886,1.12012 -1.30886,1.92021 0,1.02165 0.65648,3.53269 1.12422,4.47638 0.63187,1.20629 1.55504,1.96124 2.37154,1.96124 l -0.0205,0.44723 c -2.39206,0 -4.92361,-2.9993 -4.92361,-5.98629 0,-1.92431 1.12422,-3.2701 2.72029,-3.2701 0.4021,0 1.42785,0.0862 2.65055,1.53453 0.16822,-0.86163 0.88214,-1.53453 1.86276,-1.53453 0.71803,0 1.18577,0.46774 1.50991,1.12423 0.34876,0.73444 0.61545,1.98585 0.61545,2.02278 0,0.20515 -0.18463,0.20515 -0.24208,0.20515 -0.20515,0 -0.22566,-0.0821 -0.28721,-0.36927 -0.34875,-1.32938 -0.71802,-2.53156 -1.55094,-2.53156 -0.5539,0 -0.61545,0.52929 -0.61545,0.93959 0,0.45133 0.0369,0.61135 0.2626,1.51401 0.22976,0.85753 0.26669,1.06268 0.45133,1.83815 l 0.73391,2.8598 c 0.1477,0.57032 0.1477,0.61545 0.1477,0.69341 0,0.35286 -0.25028,0.55801 -0.59904,0.55801 -0.48825,0 -0.79188,-0.45544 -0.85752,-0.90266 z"
       inkscape:connector-curvature="0"
       style="font-style:normal;font-variant:normal;font-weight:normal;font-stretch:normal;letter-spacing:normal;word-spacing:normal;text-anchor:start;fill:#000000;fill-opacity:1;fill-rule:evenodd;stroke:#000000;stroke-width:0;stroke-linecap:butt;stroke-linejoin:miter;stroke-miterlimit:10.43299961;stroke-dasharray:none;stroke-dashoffset:0;stroke-opacity:1" /><path
       id="path129"
       d="m 91.632564,154.01644 v 0 0.004 0 0.004 0.008 0.004 0.008 0.008 l -0.004,0.008 v 0.008 l -0.004,0.008 v 0.008 l -0.004,0.008 -0.004,0.0123 -0.004,0.008 -0.004,0.0123 -0.008,0.008 -0.004,0.0123 -0.008,0.008 -0.008,0.008 -0.008,0.0123 -0.004,0.004 -0.008,0.004 -0.004,0.004 -0.004,0.004 -0.008,0.004 -0.004,0.004 -0.008,0.004 -0.008,0.004 -0.004,0.004 -0.008,0.004 h -0.008 l -0.008,0.004 -0.008,0.004 h -0.008 l -0.008,0.004 -0.008,0.004 h -0.0123 -0.008 l -0.0123,0.004 h -0.008 -0.0123 l -0.0123,0.004 h -0.0123 -0.0123 c -0.47184,0 -1.96124,-0.16822 -2.49463,-0.20515 -0.16412,-0.0205 -0.38978,-0.041 -0.38978,-0.4103 0,-0.24618 0.18463,-0.24618 0.49236,-0.24618 0.98472,0 1.02165,-0.1395 1.02165,-0.34465 0,-0.14771 -0.18464,-0.84112 -0.28721,-1.26783 l -1.67403,-6.66329 c -0.24208,-1.02575 -0.32824,-1.354 -0.32824,-2.06381 0,-1.94073 1.08319,-3.21266 2.5972,-3.21266 v 0.45133 c -0.69751,0 -1.3704,0.5498 -1.3704,2.06381 0,0.38979 0,0.77547 0.32413,2.06382 l 0.45134,1.88328 c 0.11898,0.45133 0.11898,0.48826 0.30772,0.71392 0.99703,1.32527 1.92021,1.633 2.4536,1.633 0.73854,0 1.28835,-0.60725 1.28835,-1.92431 0,-1.20218 -0.6811,-3.5491 -1.04217,-4.33278 -0.67699,-1.3663 -1.61658,-2.10074 -2.41257,-2.10074 v -0.45133 c 2.41257,0 4.92361,3.04443 4.92361,5.99039 0,1.85867 -1.08319,3.266 -2.71619,3.266 -0.93959,0 -1.7766,-0.58673 -2.39205,-1.2227 z"
       inkscape:connector-curvature="0"
       style="font-style:normal;font-variant:normal;font-weight:normal;font-stretch:normal;letter-spacing:normal;word-spacing:normal;text-anchor:start;fill:#000000;fill-opacity:1;fill-rule:evenodd;stroke:#000000;stroke-width:0;stroke-linecap:butt;stroke-linejoin:miter;stroke-miterlimit:10.43299961;stroke-dasharray:none;stroke-dashoffset:0;stroke-opacity:1" /><path
       id="path131"
       d="m 64.884727,125.8811 h -0.0616 -0.0574 l -0.0615,-0.004 h -0.0574 l -0.0574,-0.004 -0.0574,-0.008 -0.0287,-0.004 -0.0287,-0.004 -0.0287,-0.008 -0.0246,-0.004 -0.0287,-0.008 -0.0287,-0.008 -0.0287,-0.008 -0.0287,-0.008 -0.0246,-0.0123 -0.0287,-0.0123 -0.0287,-0.0123 -0.0246,-0.0164 -0.0287,-0.0164 -0.0246,-0.0164 -0.0287,-0.0205 -0.0287,-0.0164 -0.0246,-0.0246 -0.0287,-0.0205 -0.0287,-0.0246 -0.0246,-0.0287 c -0.32824,-0.30772 -0.36517,-0.65238 -0.36517,-0.79188 0,-0.49646 0.36517,-0.71803 0.75495,-0.71803 0.59084,0 1.14885,0.49237 1.14885,1.30476 0,1.00114 -0.96011,1.75609 -2.41668,1.75609 -2.75722,0 -5.47751,-2.92134 -5.47751,-5.80166 0,-1.83814 1.18987,-3.45473 3.31112,-3.45473 2.92135,0 4.64051,2.16639 4.64051,2.41257 0,0.11899 -0.12309,0.2667 -0.24618,0.2667 -0.10258,0 -0.13951,-0.0451 -0.2667,-0.20515 -1.61658,-2.02279 -3.84042,-2.02279 -4.08249,-2.02279 -1.29245,0 -1.84225,0.99703 -1.84225,2.22794 0,0.83291 0.40619,2.82287 1.10371,4.08659 0.63596,1.16526 1.75608,2.0433 2.88031,2.0433 0.69751,0 1.47298,-0.26259 1.76019,-0.81239 z"
       inkscape:connector-curvature="0"
       style="font-style:normal;font-variant:normal;font-weight:normal;font-stretch:normal;letter-spacing:normal;word-spacing:normal;text-anchor:start;fill:#000000;fill-opacity:1;fill-rule:evenodd;stroke:#000000;stroke-width:0;stroke-linecap:butt;stroke-linejoin:miter;stroke-miterlimit:10.43299961;stroke-dasharray:none;stroke-dashoffset:0;stroke-opacity:1" /><path
       id="path133"
       d="m 90.395719,84.312298 v 0 0.0041 0 0.0041 0.0082 0.0041 l -0.004,0.0082 v 0.0082 0.0082 l -0.004,0.0082 v 0.0082 l -0.004,0.0082 -0.004,0.0082 v 0.01229 l -0.008,0.0082 -0.004,0.01231 -0.004,0.0082 -0.008,0.01231 -0.008,0.0082 -0.008,0.0082 -0.008,0.01231 -0.004,0.0041 -0.004,0.0041 -0.008,0.0041 -0.004,0.0041 -0.004,0.0041 -0.008,0.0041 -0.008,0.0041 -0.004,0.0041 -0.008,0.0041 -0.008,0.0041 h -0.008 l -0.008,0.0041 -0.008,0.0041 h -0.008 l -0.008,0.0041 -0.008,0.0041 h -0.008 -0.0123 l -0.008,0.0041 h -0.0123 -0.0123 l -0.008,0.0041 h -0.0123 -0.0123 c -0.30772,0 -2.25255,-0.188738 -2.5972,-0.225666 -0.16823,-0.02052 -0.28721,-0.12309 -0.28721,-0.389785 0,-0.246181 0.18463,-0.246181 0.49236,-0.246181 0.98062,0 1.01754,-0.139502 1.01754,-0.344653 l -0.0574,-0.410301 -1.2309,-4.845654 c -0.36517,0.754954 -0.9601,1.304757 -1.87508,1.304757 l 0.0164,-0.447228 c 1.32937,0 1.61658,-1.674028 1.61658,-1.793015 0,-0.131296 -0.0369,-0.250284 -0.0574,-0.352859 l -1.03091,-4.008495 c -0.10258,-0.365167 -0.10258,-0.402095 -0.4103,-0.754953 -0.89856,-1.124225 -1.73968,-1.448363 -2.31,-1.448363 -1.01754,0 -1.30475,1.120122 -1.30475,1.920209 0,1.021649 0.65237,3.532691 1.12012,4.476383 0.63596,1.206285 1.55914,1.961238 2.37154,1.961238 l -0.0164,0.447228 c -2.39205,0 -4.92361,-2.999299 -4.92361,-5.98629 0,-1.924312 1.12012,-3.270099 2.7162,-3.270099 0.40209,0 1.42784,0.08616 2.65464,1.534526 0.16823,-0.861632 0.87805,-1.534526 1.85867,-1.534526 0.71802,0 1.18577,0.467743 1.51401,1.124225 0.34465,0.734439 0.61545,1.985856 0.61545,2.022784 0,0.20515 -0.18874,0.20515 -0.24618,0.20515 -0.20515,0 -0.22157,-0.08206 -0.28721,-0.369271 -0.34466,-1.329375 -0.71803,-2.531557 -1.55094,-2.531557 -0.5498,0 -0.61545,0.529289 -0.61545,0.939589 0,0.488259 0.0369,0.635967 0.12309,0.98062 z"
       inkscape:connector-curvature="0"
       style="font-style:normal;font-variant:normal;font-weight:normal;font-stretch:normal;letter-spacing:normal;word-spacing:normal;text-anchor:start;fill:#000000;fill-opacity:1;fill-rule:evenodd;stroke:#000000;stroke-width:0;stroke-linecap:butt;stroke-linejoin:miter;stroke-miterlimit:10.43299961;stroke-dasharray:none;stroke-dashoffset:0;stroke-opacity:1" /><path
       id="path135"
       d="m 135.60794,77.008547 0.0616,0.0041 h 0.0615 0.0697 0.0739 l 0.0779,0.0041 h 0.0821 l 0.0821,0.0041 0.0903,0.0041 0.0944,0.0041 0.0944,0.0041 0.0985,0.0041 0.0985,0.0082 0.10258,0.0082 0.10668,0.0082 0.21335,0.02051 0.22157,0.02872 0.22156,0.02872 0.22156,0.04103 0.22567,0.04513 0.21746,0.04924 0.10667,0.02872 0.10668,0.03282 0.10258,0.03282 0.10257,0.03283 0.0985,0.03693 0.0985,0.04103 c 1.43195,0.615451 1.53452,1.817633 1.53452,2.10074 0,0.902663 -0.77957,1.735573 -2.1869,1.735573 v -0.447228 c 0.9601,0 1.50991,-0.590833 1.50991,-1.288345 0,-2.121255 -3.2701,-2.121255 -4.10712,-2.121255 h -0.84111 c 0.80419,3.101875 2.90493,3.4096 3.43832,3.4096 v 0.447228 c -2.27307,0 -5.35443,-1.97765 -5.35443,-5.555474 0,-2.084329 1.20629,-3.700915 3.20445,-3.700915 2.92545,0 4.64461,2.166389 4.64461,2.41257 0,0.118987 -0.12309,0.266695 -0.24618,0.266695 -0.10258,0 -0.1395,-0.04513 -0.2667,-0.20515 -1.61658,-2.022784 -3.84452,-2.022784 -4.0866,-2.022784 -1.59607,0 -1.7807,1.715058 -1.7807,2.37154 0,0.242077 0.0205,0.878044 0.32824,2.125359 z"
       inkscape:connector-curvature="0"
       style="font-style:normal;font-variant:normal;font-weight:normal;font-stretch:normal;letter-spacing:normal;word-spacing:normal;text-anchor:start;fill:#000000;fill-opacity:1;fill-rule:evenodd;stroke:#000000;stroke-width:0;stroke-linecap:butt;stroke-linejoin:miter;stroke-miterlimit:10.43299961;stroke-dasharray:none;stroke-dashoffset:0;stroke-opacity:1" /></g></svg>